<svg aria-hidden="true" style="position: absolute; width: 0; height: 0; overflow: hidden;" version="1.1" xmlns="http://www.w3.org/2000/svg" xmlns:xlink="http://www.w3.org/1999/xlink">
<defs>
<symbol id="icon-chevron-left" viewBox="0 0 21 28">
<path d="M18.297 4.703l-8.297 8.297 8.297 8.297c0.391 0.391 0.391 1.016 0 1.406l-2.594 2.594c-0.391 0.391-1.016 0.391-1.406 0l-11.594-11.594c-0.391-0.391-0.391-1.016 0-1.406l11.594-11.594c0.391-0.391 1.016-0.391 1.406 0l2.594 2.594c0.391 0.391 0.391 1.016 0 1.406z"></path>
</symbol>
<symbol id="icon-chevron-right" viewBox="0 0 19 28">
<path d="M17.297 13.703l-11.594 11.594c-0.391 0.391-1.016 0.391-1.406 0l-2.594-2.594c-0.391-0.391-0.391-1.016 0-1.406l8.297-8.297-8.297-8.297c-0.391-0.391-0.391-1.016 0-1.406l2.594-2.594c0.391-0.391 1.016-0.391 1.406 0l11.594 11.594c0.391 0.391 0.391 1.016 0 1.406z"></path>
</symbol>
<symbol id="icon-facebook" viewBox="0 0 32 32">
<path fill="#1877f2" style="fill: var(--color1, #1877f2)" d="M31.997 15.999c0-8.836-7.163-15.999-15.999-15.999s-15.999 7.163-15.999 15.999c0 7.985 5.851 14.604 13.499 15.804v-11.18h-4.062v-4.625h4.062v-3.525c0-4.010 2.389-6.225 6.043-6.225 1.75 0 3.581 0.313 3.581 0.313v3.937h-2.017c-1.987 0-2.607 1.233-2.607 2.498v3.001h4.437l-0.709 4.625h-3.728v11.18c7.649-1.2 13.499-7.819 13.499-15.804z"></path>
</symbol>
<symbol id="icon-youtube" viewBox="0 0 32 32">
<path fill="#f00" style="fill: var(--color2, #f00)" d="M31.327 8.273c-0.386-1.353-1.431-2.398-2.756-2.777l-0.028-0.007c-2.493-0.668-12.528-0.668-12.528-0.668s-10.009-0.013-12.528 0.668c-1.353 0.386-2.398 1.431-2.777 2.756l-0.007 0.028c-0.443 2.281-0.696 4.903-0.696 7.585 0 0.054 0 0.109 0 0.163l-0-0.008c-0 0.037-0 0.082-0 0.126 0 2.682 0.253 5.304 0.737 7.845l-0.041-0.26c0.386 1.353 1.431 2.398 2.756 2.777l0.028 0.007c2.491 0.669 12.528 0.669 12.528 0.669s10.008 0 12.528-0.669c1.353-0.386 2.398-1.431 2.777-2.756l0.007-0.028c0.425-2.233 0.668-4.803 0.668-7.429 0-0.099-0-0.198-0.001-0.297l0 0.015c0.001-0.092 0.001-0.201 0.001-0.31 0-2.626-0.243-5.196-0.708-7.687l0.040 0.258zM12.812 20.801v-9.591l8.352 4.803z"></path>
</symbol>
<symbol id="icon-instagram" viewBox="0 0 32 32">
<path d="M16 0c-4.347 0-4.889 0.020-6.596 0.096-1.704 0.080-2.864 0.348-3.884 0.744-1.052 0.408-1.945 0.956-2.835 1.845s-1.439 1.781-1.845 2.835c-0.396 1.020-0.665 2.18-0.744 3.884-0.080 1.707-0.096 2.249-0.096 6.596s0.020 4.889 0.096 6.596c0.080 1.703 0.348 2.864 0.744 3.884 0.408 1.051 0.956 1.945 1.845 2.835 0.889 0.888 1.781 1.439 2.835 1.845 1.021 0.395 2.181 0.665 3.884 0.744 1.707 0.080 2.249 0.096 6.596 0.096s4.889-0.020 6.596-0.096c1.703-0.080 2.864-0.349 3.884-0.744 1.051-0.408 1.945-0.957 2.835-1.845 0.888-0.889 1.439-1.78 1.845-2.835 0.395-1.020 0.665-2.181 0.744-3.884 0.080-1.707 0.096-2.249 0.096-6.596s-0.020-4.889-0.096-6.596c-0.080-1.703-0.349-2.865-0.744-3.884-0.408-1.052-0.957-1.945-1.845-2.835-0.889-0.889-1.78-1.439-2.835-1.845-1.020-0.396-2.181-0.665-3.884-0.744-1.707-0.080-2.249-0.096-6.596-0.096zM16 2.88c4.271 0 4.78 0.021 6.467 0.095 1.56 0.073 2.407 0.332 2.969 0.553 0.749 0.289 1.28 0.636 1.843 1.195 0.559 0.56 0.905 1.092 1.195 1.841 0.219 0.563 0.48 1.409 0.551 2.969 0.076 1.688 0.093 2.195 0.093 6.467s-0.020 4.78-0.099 6.467c-0.081 1.56-0.341 2.407-0.561 2.969-0.299 0.749-0.639 1.28-1.199 1.843-0.559 0.559-1.099 0.905-1.84 1.195-0.56 0.219-1.42 0.48-2.98 0.551-1.699 0.076-2.199 0.093-6.479 0.093-4.281 0-4.781-0.020-6.479-0.099-1.561-0.081-2.421-0.341-2.981-0.561-0.759-0.299-1.28-0.639-1.839-1.199-0.561-0.559-0.92-1.099-1.2-1.84-0.22-0.56-0.479-1.42-0.56-2.98-0.060-1.68-0.081-2.199-0.081-6.459 0-4.261 0.021-4.781 0.081-6.481 0.081-1.56 0.34-2.419 0.56-2.979 0.28-0.76 0.639-1.28 1.2-1.841 0.559-0.559 1.080-0.919 1.839-1.197 0.56-0.221 1.401-0.481 2.961-0.561 1.7-0.060 2.2-0.080 6.479-0.080zM16 7.784c-4.54 0-8.216 3.68-8.216 8.216 0 4.54 3.68 8.216 8.216 8.216 4.54 0 8.216-3.68 8.216-8.216 0-4.54-3.68-8.216-8.216-8.216zM16 21.333c-2.947 0-5.333-2.387-5.333-5.333s2.387-5.333 5.333-5.333 5.333 2.387 5.333 5.333-2.387 5.333-5.333 5.333zM26.461 7.46c0 1.060-0.861 1.92-1.92 1.92-1.060 0-1.92-0.861-1.92-1.92s0.861-1.919 1.92-1.919c1.057-0.001 1.92 0.86 1.92 1.919z"></path>
</symbol>
<symbol id="icon-chevron-thin-left" viewBox="0 0 20 20">
<path d="M13.891 17.418c0.268 0.272 0.268 0.709 0 0.979s-0.701 0.271-0.969 0l-7.83-7.908c-0.268-0.27-0.268-0.707 0-0.979l7.83-7.908c0.268-0.27 0.701-0.27 0.969 0s0.268 0.709 0 0.979l-7.141 7.419 7.141 7.418z"></path>
</symbol>
<symbol id="icon-chevron-thin-right" viewBox="0 0 20 20">
<path d="M13.25 10l-7.141-7.42c-0.268-0.27-0.268-0.707 0-0.979 0.268-0.27 0.701-0.27 0.969 0l7.83 7.908c0.268 0.271 0.268 0.709 0 0.979l-7.83 7.908c-0.268 0.271-0.701 0.27-0.969 0s-0.268-0.707 0-0.979l7.141-7.417z"></path>
</symbol>
<symbol id="icon-facebook1" viewBox="0 0 20 20">
<path d="M17 1h-14c-1.1 0-2 0.9-2 2v14c0 1.101 0.9 2 2 2h7v-7h-2v-2.475h2v-2.050c0-2.164 1.212-3.684 3.766-3.684l1.803 0.002v2.605h-1.197c-0.994 0-1.372 0.746-1.372 1.438v1.69h2.568l-0.568 2.474h-2v7h4c1.1 0 2-0.899 2-2v-14c0-1.1-0.9-2-2-2z"></path>
</symbol>
<symbol id="icon-instagram1" viewBox="0 0 20 20">
<path d="M17 1h-14c-1.1 0-2 0.9-2 2v14c0 1.101 0.9 2 2 2h14c1.1 0 2-0.899 2-2v-14c0-1.1-0.9-2-2-2zM9.984 15.523c3.059 0 5.538-2.481 5.538-5.539 0-0.338-0.043-0.664-0.103-0.984h1.581v7.216c0 0.382-0.31 0.69-0.693 0.69h-12.614c-0.383 0-0.693-0.308-0.693-0.69v-7.216h1.549c-0.061 0.32-0.104 0.646-0.104 0.984 0 3.059 2.481 5.539 5.539 5.539zM6.523 9.984c0-1.912 1.55-3.461 3.462-3.461s3.462 1.549 3.462 3.461-1.551 3.462-3.462 3.462c-1.913 0-3.462-1.55-3.462-3.462zM16.307 6h-1.615c-0.382 0-0.692-0.312-0.692-0.692v-1.617c0-0.382 0.31-0.691 0.691-0.691h1.615c0.384 0 0.694 0.309 0.694 0.691v1.616c0 0.381-0.31 0.693-0.693 0.693z"></path>
</symbol>
<symbol id="icon-youtube1" viewBox="0 0 20 20">
<path d="M10 2.3c-9.828 0-10 0.874-10 7.7s0.172 7.7 10 7.7 10-0.874 10-7.7-0.172-7.7-10-7.7zM13.205 10.334l-4.49 2.096c-0.393 0.182-0.715-0.022-0.715-0.456v-3.948c0-0.433 0.322-0.638 0.715-0.456l4.49 2.096c0.393 0.184 0.393 0.484 0 0.668z"></path>
</symbol>
<symbol id="icon-circle-right" viewBox="0 0 32 32">
<path d="M16 0c-8.837 0-16 7.163-16 16s7.163 16 16 16 16-7.163 16-16-7.163-16-16-16zM16 29c-7.18 0-13-5.82-13-13s5.82-13 13-13 13 5.82 13 13-5.82 13-13 13z"></path>
<path d="M11.086 22.086l2.829 2.829 8.914-8.914-8.914-8.914-2.828 2.828 6.086 6.086z"></path>
</symbol>
<symbol id="icon-circle-left" viewBox="0 0 32 32">
<path d="M16 32c8.837 0 16-7.163 16-16s-7.163-16-16-16-16 7.163-16 16 7.163 16 16 16zM16 3c7.18 0 13 5.82 13 13s-5.82 13-13 13-13-5.82-13-13 5.82-13 13-13z"></path>
<path d="M20.914 9.914l-2.829-2.829-8.914 8.914 8.914 8.914 2.828-2.828-6.086-6.086z"></path>
</symbol>

<symbol id="icon-close" viewBox="0 0 512 512">
<path style="enable-background:new 0 0 512 512;" d="M437.019,74.98C388.667,26.628,324.379,0,256,0S123.333,26.628,74.981,74.981C26.629,123.333,0,187.62,0,256.001
			c0,68.38,26.628,132.668,74.98,181.02C123.332,485.371,187.619,512,255.999,512s132.668-26.628,181.02-74.98
			C485.371,388.667,512,324.38,512,256S485.371,123.333,437.019,74.98z M415.806,415.807C373.12,458.492,316.366,482,255.999,482
			s-117.121-23.508-159.806-66.193C53.507,373.121,30,316.368,30,256.001S53.509,138.88,96.194,96.194
			C138.88,53.508,195.633,30,256,30s117.12,23.508,159.807,66.193C503.922,184.311,503.922,327.689,415.806,415.807z"/>
            
            <path d="M368.854,347.642l-91.641-91.641l91.641-91.641c5.857-5.858,5.857-15.355-0.001-21.212
			c-5.857-5.858-15.355-5.858-21.213,0L256,234.788l-91.641-91.641c-5.857-5.858-15.355-5.858-21.213,0
			c-5.858,5.858-5.858,15.355,0,21.213l91.641,91.641l-91.641,91.641c-5.858,5.858-5.858,15.355,0,21.213
			c2.929,2.929,6.768,4.393,10.606,4.393c3.839,0,7.678-1.464,10.607-4.393L256,277.214l91.641,91.641
			c2.929,2.929,6.768,4.393,10.607,4.393s7.678-1.464,10.606-4.393C374.712,362.997,374.712,353.5,368.854,347.642z"/>

</symbol>

<symbol id="icon-angle-arrow-down" viewBox="0 0 284.929 284.929">
<path d="M282.082,76.511l-14.274-14.273c-1.902-1.906-4.093-2.856-6.57-2.856c-2.471,0-4.661,0.95-6.563,2.856L142.466,174.441
		L30.262,62.241c-1.903-1.906-4.093-2.856-6.567-2.856c-2.475,0-4.665,0.95-6.567,2.856L2.856,76.515C0.95,78.417,0,80.607,0,83.082
		c0,2.473,0.953,4.663,2.856,6.565l133.043,133.046c1.902,1.903,4.093,2.854,6.567,2.854s4.661-0.951,6.562-2.854L282.082,89.647
		c1.902-1.903,2.847-4.093,2.847-6.565C284.929,80.607,283.984,78.417,282.082,76.511z"/>

</symbol>

<symbol id="icon-caret-down" viewBox="0 0 292.362 292.362">
<path d="M286.935,69.377c-3.614-3.617-7.898-5.424-12.848-5.424H18.274c-4.952,0-9.233,1.807-12.85,5.424
		C1.807,72.998,0,77.279,0,82.228c0,4.948,1.807,9.229,5.424,12.847l127.907,127.907c3.621,3.617,7.902,5.428,12.85,5.428
		s9.233-1.811,12.847-5.428L286.935,95.074c3.613-3.617,5.427-7.898,5.427-12.847C292.362,77.279,290.548,72.998,286.935,69.377z"/>

</symbol>

<symbol id="icon-drop-down-arrow" viewBox="0 0 255 255">
<polygon points="0,63.75 127.5,191.25 255,63.75"/>
</symbol>

<symbol id="icon-youtube2" viewBox="0 0 455.731 455.731">
<path d="M263.259,291.734c-0.01-1.7-0.51-3.47-1.14-5.06c-0.84-2.09-2.64-3.13-4.9-3.35
			c-2.65-0.26-4.77,0.81-6.69,2.51c-0.77,0.67-1.12,1.67-1.12,1.67l0.04,53.97v1.33c0,0,0.46,0.62,0.53,0.7
			c1.56,1.69,3.38,3.03,5.71,3.51c3.84,0.79,6.55-0.81,7.3-4.37c0.19-0.89,0.3-1.81,0.3-2.72
			C263.309,323.854,263.339,307.794,263.259,291.734z M263.259,291.734c-0.01-1.7-0.51-3.47-1.14-5.06
			c-0.84-2.09-2.64-3.13-4.9-3.35c-2.65-0.26-4.77,0.81-6.69,2.51c-0.77,0.67-1.12,1.67-1.12,1.67l0.04,53.97v1.33
			c0,0,0.46,0.62,0.53,0.7c1.56,1.69,3.38,3.03,5.71,3.51c3.84,0.79,6.55-0.81,7.3-4.37c0.19-0.89,0.3-1.81,0.3-2.72
			C263.309,323.854,263.339,307.794,263.259,291.734z M323.689,210.344c-63.87-1.37-127.77-1.37-191.65,0
			c-22.16,0.47-39.88,18.59-39.88,40.76v99.76c0,22.18,17.72,40.3,39.88,40.77c63.88,1.37,127.78,1.37,191.65,0
			c22.17-0.47,39.89-18.59,39.89-40.77v-99.76C363.579,228.935,345.859,210.814,323.689,210.344z M150.799,359.955h-18.42v-104.13
			h-19.07v-17.42h56.6v17.38h-19.11V359.955z M216.719,316.734v43.23h-16.31v-9.88c-0.59,0.63-0.92,0.97-1.23,1.32
			c-3.51,3.96-7.49,7.26-12.57,9.01c-2.48,0.85-5.03,1.14-7.64,0.69c-3.56-0.59-5.95-2.64-7.39-5.88c-1.34-2.99-1.68-6.19-1.69-9.41
			c-0.04-11.9-0.02-74.88-0.02-75.49h16.27c0.03,0.55,0.09,45.76,0.1,67.81c0,1.2,0.01,2.43,0.25,3.6c0.6,2.96,2.87,4.23,5.72,3.19
			c3.28-1.2,5.78-3.46,7.88-6.17c0.31-0.39,0.31-1.09,0.31-1.65v-66.88l16.32-0.04C216.719,270.185,216.719,301.754,216.719,316.734
			z M278.769,351.324c-2.18,6.56-6.98,9.9-13.88,9.83c-5.61-0.05-10.16-2.28-13.91-6.35c-0.42-0.45-1.58-1.68-1.58-1.68v6.82h-16.34
			v-121.55h16.34c0,12.94,0,40.01,0,40.01s0.92-1.84,1.76-2.79c2.53-2.83,5.61-5.02,9.41-5.98c6.27-1.57,13.5,0.37,16.94,7.7
			c2.03,4.33,2.6,8.95,2.6,13.65c0.03,16.99,0.03,33.98,0.01,50.97C280.109,345.134,279.779,348.275,278.769,351.324z
			 M339.119,347.905c-2.83,8.29-8.68,12.89-17.26,14.15c-5.32,0.78-10.59,0.67-15.58-1.59c-6.83-3.08-10.7-8.65-12.36-15.74
			c-0.77-3.3-1.15-6.76-1.19-10.15c-0.13-13.31-0.07-26.63-0.04-39.94c0.01-6.96,1.67-13.38,6.44-18.71
			c5.44-6.09,12.4-8.36,20.35-7.85c2.39,0.15,4.83,0.54,7.1,1.29c7.73,2.54,11.86,8.33,13.48,16.01c0.62,2.96,0.85,6.03,0.9,9.06
			c0.13,7.1-0.05,22.75-0.05,22.75h-31.29v22.43c0,4.03,3.26,7.29,7.29,7.29c4.02,0,7.28-3.26,7.28-7.29v-11.53h16.81
			C340.999,328.084,341.249,341.695,339.119,347.905z M324.189,290.685c0-4.02-3.26-7.29-7.28-7.29c-4.03,0-7.29,3.27-7.29,7.29
			v12.59h14.57V290.685z M262.119,286.675c-0.84-2.09-2.64-3.13-4.9-3.35c-2.65-0.26-4.77,0.81-6.69,2.51
			c-0.77,0.67-1.12,1.67-1.12,1.67l0.04,53.97v1.33c0,0,0.46,0.62,0.53,0.7c1.56,1.69,3.38,3.03,5.71,3.51
			c3.84,0.79,6.55-0.81,7.3-4.37c0.19-0.89,0.3-1.81,0.3-2.72c0.02-16.07,0.05-32.13-0.03-48.19
			C263.249,290.034,262.749,288.264,262.119,286.675z"/>
		<path d="M303.887,94.99l-0.005,90.244H287.16l0.02-9.695c-1.849,1.821-3.427,3.522-5.161,5.05
			c-3.074,2.708-6.556,4.727-10.629,5.524c-6.253,1.223-11.579-0.754-13.573-7.23c-0.664-2.157-1.065-4.482-1.082-6.734V94.99
			h16.596v68.821c0,0.912,0.073,1.834,0.233,2.728c0.504,2.836,2.6,4.171,5.331,3.224c3.329-1.152,5.869-3.457,8.024-6.173
			c0.306-0.388,0.251-1.112,0.251-1.681V94.99H303.887z"/>
		<path d="M165.578,110.672c-3.63-15.301-11.235-47.602-11.235-47.602h-19.029
			c0,0,14.62,48.487,21.158,70.111c0.235,0.782,0.343,1.631,0.343,2.45l-0.007,49.584h17.547l-0.007-49.584
			c0-0.819,0.108-1.668,0.343-2.45c6.538-21.624,21.158-70.111,21.158-70.111H176.82c0,0-7.606,32.301-11.235,47.602H165.578z"/>
		<path d="M218.752,92.731L218.752,92.731c-13.224,0-23.944,10.72-23.944,23.944v46.859
			c0,13.224,10.72,23.944,23.944,23.944h0c13.224,0,23.944-10.72,23.944-23.944v-46.859
			C242.697,103.451,231.976,92.731,218.752,92.731z M225.662,164.48c0,3.81-3.1,6.909-6.909,6.909s-6.909-3.099-6.909-6.909v-48.752
			c0-3.81,3.1-6.909,6.909-6.909s6.909,3.1,6.909,6.909V164.48z"/>
</symbol>


</defs>
</svg>
